<svg width="658" height="665" viewBox="0 0 658 665" fill="none" xmlns="http://www.w3.org/2000/svg">
<g opacity="0.5">
<mask id="mask0_1325_31434" style="mask-type:alpha" maskUnits="userSpaceOnUse" x="0" y="0" width="658" height="665">
<rect width="658" height="665" rx="10" fill="url(#paint0_linear_1325_31434)"/>
</mask>
<g mask="url(#mask0_1325_31434)">
<path d="M183 623.32C183 760.659 64.1316 871.993 -82.5 871.993C-229.132 871.993 -348 760.659 -348 623.32C-348 485.982 -229.132 374.648 -82.5 374.648C64.1316 374.648 183 485.982 183 623.32ZM-291.75 623.32C-291.75 731.562 -198.066 819.308 -82.5 819.308C33.0656 819.308 126.75 731.562 126.75 623.32C126.75 515.079 33.0656 427.333 -82.5 427.333C-198.066 427.333 -291.75 515.079 -291.75 623.32Z" fill="white" fill-opacity="0.5"/>
<path d="M441 622.852C441 893.907 206.397 1113.64 -83 1113.64C-372.397 1113.64 -607 893.907 -607 622.852C-607 351.797 -372.397 132.063 -83 132.063C206.397 132.063 441 351.797 441 622.852ZM-552.715 622.852C-552.715 865.827 -342.417 1062.8 -83 1062.8C176.417 1062.8 386.715 865.827 386.715 622.852C386.715 379.878 176.417 182.908 -83 182.908C-342.417 182.908 -552.715 379.878 -552.715 622.852Z" fill="white" fill-opacity="0.5"/>
<path d="M324 622.852C324 833.385 141.78 1004.06 -83 1004.06C-307.78 1004.06 -490 833.385 -490 622.852C-490 412.319 -307.78 241.648 -83 241.648C141.78 241.648 324 412.319 324 622.852ZM-426.468 622.852C-426.468 800.522 -272.692 944.551 -83 944.551C106.692 944.551 260.468 800.522 260.468 622.852C260.468 445.183 106.692 301.153 -83 301.153C-272.692 301.153 -426.468 445.183 -426.468 622.852Z" fill="white" fill-opacity="0.5"/>
</g>
</g>
<defs>
<linearGradient id="paint0_linear_1325_31434" x1="12" y1="716.982" x2="867.686" y2="-219.024" gradientUnits="userSpaceOnUse">
<stop stop-color="#7022D3"/>
<stop offset="1" stop-color="#CA47AD"/>
</linearGradient>
</defs>
</svg>
