<svg width="221" height="267" viewBox="0 0 221 267" fill="none" xmlns="http://www.w3.org/2000/svg">
<g opacity="0.1">
<path d="M33.7949 157.275C34.8022 163.269 31.2803 169.1 25.5062 170.998C14.6653 174.561 5.23723 162.722 11.1371 152.954C17.037 143.186 31.9035 146.021 33.7949 157.275Z" stroke="#6900EE" stroke-width="3.07407"/>
<path d="M75.7939 157.275C76.8013 163.269 73.2793 169.1 67.5052 170.998C56.6643 174.561 47.2362 162.722 53.1361 152.954C59.036 143.186 73.9026 146.021 75.7939 157.275Z" stroke="#6900EE" stroke-width="3.07407"/>
<path d="M117.791 157.275C118.798 163.269 115.276 169.1 109.502 170.998C98.6614 174.561 89.2333 162.722 95.1332 152.954C101.033 143.186 115.9 146.021 117.791 157.275Z" stroke="#6900EE" stroke-width="3.07407"/>
<mask id="path-4-inside-1_1325_31473" fill="white">
<path d="M108.397 254.472C111.608 260.742 109.147 268.499 102.569 271.021C81.5715 279.071 58.6296 281.031 36.4188 276.534C10.0232 271.189 -13.7756 257.041 -31.081 236.406C-48.3863 215.771 -58.1727 189.871 -58.8377 162.948C-59.5027 136.025 -51.0069 109.674 -34.7414 88.2095C-18.4759 66.745 4.59539 51.439 30.6949 44.7978C56.7944 38.1565 84.3755 40.5735 108.922 51.653C133.469 62.7325 153.526 81.8179 165.81 105.784C176.147 125.951 180.465 148.568 178.394 170.96C177.745 177.975 170.943 182.443 164.037 181.047C157.132 179.65 152.76 172.913 153.202 165.882C154.254 149.192 150.806 132.441 143.107 117.421C133.459 98.5976 117.706 83.6077 98.4266 74.9058C79.1474 66.2038 57.4849 64.3055 36.9861 69.5216C16.4873 74.7377 -1.63317 86.7592 -14.4082 103.618C-27.1833 120.476 -33.856 141.172 -33.3337 162.318C-32.8114 183.464 -25.1251 203.805 -11.5333 220.013C2.0585 236.22 20.7504 247.332 41.4817 251.53C58.0243 254.879 75.0833 253.668 90.8665 248.142C97.5157 245.814 105.185 248.202 108.397 254.472Z"/>
</mask>
<path d="M108.397 254.472C111.608 260.742 109.147 268.499 102.569 271.021C81.5715 279.071 58.6296 281.031 36.4188 276.534C10.0232 271.189 -13.7756 257.041 -31.081 236.406C-48.3863 215.771 -58.1727 189.871 -58.8377 162.948C-59.5027 136.025 -51.0069 109.674 -34.7414 88.2095C-18.4759 66.745 4.59539 51.439 30.6949 44.7978C56.7944 38.1565 84.3755 40.5735 108.922 51.653C133.469 62.7325 153.526 81.8179 165.81 105.784C176.147 125.951 180.465 148.568 178.394 170.96C177.745 177.975 170.943 182.443 164.037 181.047C157.132 179.65 152.76 172.913 153.202 165.882C154.254 149.192 150.806 132.441 143.107 117.421C133.459 98.5976 117.706 83.6077 98.4266 74.9058C79.1474 66.2038 57.4849 64.3055 36.9861 69.5216C16.4873 74.7377 -1.63317 86.7592 -14.4082 103.618C-27.1833 120.476 -33.856 141.172 -33.3337 162.318C-32.8114 183.464 -25.1251 203.805 -11.5333 220.013C2.0585 236.22 20.7504 247.332 41.4817 251.53C58.0243 254.879 75.0833 253.668 90.8665 248.142C97.5157 245.814 105.185 248.202 108.397 254.472Z" stroke="url(#paint0_linear_1325_31473)" stroke-opacity="0.5" stroke-width="6.14815" mask="url(#path-4-inside-1_1325_31473)"/>
<path d="M143.572 201.526C144.714 198.439 149.079 198.439 150.221 201.526L156.287 217.919C156.957 219.731 158.386 221.159 160.198 221.83L176.591 227.896C179.678 229.038 179.678 233.403 176.591 234.545L160.198 240.611C158.386 241.282 156.957 242.71 156.287 244.522L150.221 260.916C149.079 264.002 144.714 264.002 143.572 260.916L137.505 244.522C136.835 242.71 135.406 241.282 133.595 240.611L117.201 234.545C114.115 233.403 114.115 229.038 117.201 227.896L133.595 221.83C135.406 221.159 136.835 219.731 137.505 217.919L143.572 201.526Z" stroke="#FFE1A8" stroke-width="3.07407"/>
</g>
<defs>
<linearGradient id="paint0_linear_1325_31473" x1="5.81255" y1="54.1998" x2="114.212" y2="265.825" gradientUnits="userSpaceOnUse">
<stop stop-color="#7022D3"/>
<stop offset="1" stop-color="#CA47AD"/>
</linearGradient>
</defs>
</svg>
