<svg width="168" height="168" viewBox="0 0 168 168" fill="none" xmlns="http://www.w3.org/2000/svg">
<path d="M70.9259 82.3053C71.5199 85.8398 69.4431 89.2783 66.0383 90.3975C59.6457 92.4988 54.0862 85.5176 57.5652 79.7576C61.0442 73.9977 69.8106 75.6693 70.9259 82.3053Z" fill="#2F80ED"/>
<path d="M92.9403 82.3053C93.5343 85.8398 91.4575 89.2783 88.0527 90.3975C81.6601 92.4988 76.1006 85.5176 79.5796 79.7576C83.0586 73.9977 91.8251 75.6693 92.9403 82.3053Z" fill="#2F80ED"/>
<path d="M114.954 82.3053C115.548 85.8398 113.471 89.2783 110.066 90.3975C103.674 92.4988 98.1143 85.5176 101.593 79.7576C105.072 73.9977 113.839 75.6693 114.954 82.3053Z" fill="#2F80ED"/>
<path d="M109.236 133.387C110.919 136.673 109.629 140.74 106.181 142.061C95.1747 146.281 83.1492 147.308 71.5069 144.951C57.6712 142.15 45.1965 134.733 36.1255 123.917C27.0546 113.101 21.9249 99.5249 21.5763 85.4126C21.2277 71.3004 25.681 57.4879 34.2069 46.2368C42.7327 34.9858 54.8261 26.9628 68.5067 23.4817C82.1873 20.0005 96.6444 21.2674 109.511 27.075C122.378 32.8825 132.891 42.8866 139.33 55.449C144.749 66.0199 147.012 77.8751 145.926 89.6123C145.586 93.2893 142.02 95.6312 138.401 94.8994C134.781 94.1675 132.489 90.6358 132.721 86.9503C133.272 78.2022 131.465 69.4219 127.43 61.5487C122.373 51.682 114.115 43.8247 104.01 39.2634C93.904 34.7021 82.5492 33.7071 71.8043 36.4412C61.0594 39.1753 51.5612 45.4766 44.8649 54.3133C38.1686 63.15 34.6709 73.9985 34.9447 85.0824C35.2185 96.1663 39.2474 106.829 46.3719 115.324C53.4963 123.82 63.294 129.644 74.1608 131.845C82.8319 133.6 91.7738 132.965 100.047 130.069C103.532 128.849 107.552 130.1 109.236 133.387Z" fill="#2F80ED"/>
<path d="M127.489 103.809C128.151 102.02 130.68 102.02 131.342 103.809L135.191 114.21C135.399 114.772 135.842 115.215 136.404 115.424L146.805 119.272C148.594 119.934 148.594 122.464 146.805 123.125L136.404 126.974C135.842 127.182 135.399 127.625 135.191 128.188L131.342 138.589C130.68 140.377 128.151 140.377 127.489 138.589L123.64 128.188C123.432 127.625 122.989 127.182 122.427 126.974L112.026 123.125C110.237 122.464 110.237 119.934 112.026 119.272L122.427 115.424C122.989 115.215 123.432 114.772 123.64 114.21L127.489 103.809Z" fill="#F2A105"/>
</svg>
