<svg width="41" height="41" viewBox="0 0 41 41" fill="none" xmlns="http://www.w3.org/2000/svg">
<path d="M17.2635 20.0332C17.408 20.8935 16.9025 21.7305 16.0738 22.0029C14.5178 22.5143 13.1646 20.8151 14.0114 19.4131C14.8582 18.0111 16.992 18.418 17.2635 20.0332Z" fill="#2F80ED"/>
<path d="M22.6219 20.0332C22.7664 20.8935 22.2609 21.7305 21.4322 22.0029C19.8762 22.5143 18.523 20.8151 19.3698 19.4131C20.2166 18.0111 22.3504 18.418 22.6219 20.0332Z" fill="#2F80ED"/>
<path d="M27.98 20.0332C28.1246 20.8935 27.6191 21.7305 26.7904 22.0029C25.2344 22.5143 23.8812 20.8151 24.728 19.4131C25.5748 18.0111 27.7086 18.418 27.98 20.0332Z" fill="#2F80ED"/>
<path d="M26.5881 32.4666C26.9979 33.2665 26.6838 34.2562 25.8446 34.578C23.1656 35.605 20.2386 35.8551 17.4049 35.2813C14.0372 34.5994 11.0009 32.7943 8.79299 30.1616C6.5851 27.5289 5.33652 24.2245 5.25167 20.7896C5.16683 17.3546 6.25076 13.9926 8.32597 11.2541C10.4012 8.51559 13.3447 6.5628 16.6746 5.71548C20.0045 4.86816 23.5234 5.17653 26.6551 6.59009C29.7869 8.00366 32.3459 10.4387 33.9132 13.4964C35.232 16.0693 35.7828 18.9549 35.5186 21.8118C35.4358 22.7068 34.568 23.2768 33.687 23.0987C32.806 22.9205 32.2481 22.0609 32.3046 21.1638C32.4387 19.0345 31.9989 16.8974 31.0166 14.9811C29.7857 12.5795 27.7758 10.667 25.3161 9.55678C22.8564 8.44655 20.0926 8.20435 17.4773 8.86985C14.8619 9.53534 12.5501 11.0691 10.9202 13.22C9.29026 15.3708 8.43893 18.0114 8.50557 20.7092C8.57221 23.407 9.55286 26.0023 11.287 28.0701C13.0211 30.1379 15.4058 31.5556 18.0508 32.0912C20.1614 32.5185 22.3378 32.364 24.3515 31.659C25.1999 31.362 26.1783 31.6666 26.5881 32.4666Z" fill="url(#paint0_linear_1275_599)"/>
<path d="M31.0311 25.2673C31.1922 24.8319 31.8079 24.8319 31.9689 25.2673L32.9057 27.7989C32.9564 27.9357 33.0643 28.0436 33.2011 28.0943L35.7328 29.0311C36.1681 29.1922 36.1681 29.8078 35.7328 29.9689L33.2011 30.9057C33.0643 30.9564 32.9564 31.0643 32.9057 31.2011L31.9689 33.7327C31.8079 34.1681 31.1922 34.1681 31.0311 33.7327L30.0943 31.2011C30.0437 31.0643 29.9358 30.9564 29.7989 30.9057L27.2673 29.9689C26.832 29.8078 26.832 29.1922 27.2673 29.0311L29.7989 28.0943C29.9358 28.0436 30.0437 27.9357 30.0943 27.7989L31.0311 25.2673Z" fill="#F2A105"/>
<defs>
<linearGradient id="paint0_linear_1275_599" x1="25" y1="35" x2="30.2974" y2="19.7166" gradientUnits="userSpaceOnUse">
<stop stop-color="#00122E"/>
<stop offset="1" stop-color="#2F80ED"/>
</linearGradient>
</defs>
</svg>
